<svg width="253" height="253" viewBox="0 0 253 253" fill="none" xmlns="http://www.w3.org/2000/svg">
<path d="M109.231 203.274C101.758 203.274 95.6065 197.565 94.9224 189.991C94.5125 185.449 95.0466 180.9 96.5575 176.081C96.8949 175.008 97.2486 173.93 97.593 172.888C98.2981 170.747 99.0243 168.54 99.6053 166.347C99.7974 165.624 99.7435 164.75 99.6896 163.827C99.6896 163.81 99.6872 163.792 99.6872 163.775C98.8884 164.167 98.1318 164.534 97.3611 164.867C94.4445 166.127 91.2539 166.741 87.6088 166.741C86.4305 166.741 85.2217 166.678 83.9099 166.551C79.0982 166.08 74.9659 163.963 71.9064 162.173C69.7559 160.915 67.5328 159.613 65.052 159.374C64.6889 159.338 64.3328 159.32 63.9885 159.32C61.9012 159.32 60.1091 159.98 58.6591 161.283C57.5651 162.264 57.2559 163.714 57.8673 164.975C58.1929 165.642 58.6755 166.296 59.144 166.928C59.4345 167.322 59.7367 167.727 60.0154 168.154C60.2356 168.491 60.3575 168.847 60.4652 169.161C60.505 169.276 60.5425 169.388 60.5847 169.496L60.9384 170.381L60.0459 170.716C59.9545 170.752 59.8421 170.805 59.725 170.864C59.3923 171.028 58.9824 171.229 58.5045 171.229C58.4529 171.229 58.4014 171.227 58.3499 171.222C56.3727 171.037 54.5572 170.192 52.9525 168.704C50.3405 166.282 48.9303 162.958 48.9818 159.345C49.0357 155.588 50.72 151.987 53.6061 149.464C56.0401 147.335 58.8137 146.159 61.852 145.967C65.0778 145.763 68.0177 145.665 70.8452 145.665C71.7261 145.665 72.6069 145.674 73.4619 145.695C75.76 145.749 78.044 146.213 80.1688 146.707C81.326 146.977 82.5067 147.112 83.6803 147.112C86.0276 147.112 88.41 146.585 90.9611 145.503C92.0551 145.039 93.1866 144.442 94.6319 143.566C95.0068 143.339 95.2738 143.083 95.0372 142.045C93.8565 136.868 91.2188 132.46 88.15 127.638C84.622 122.098 82.242 116.008 81.0754 109.537C80.4101 105.848 80.2718 101.933 80.6537 97.5737C80.6841 97.2293 80.6841 97.2293 80.4663 97.0911C79.9579 96.7678 79.6183 96.3087 79.3067 95.8472C79.302 95.8495 79.2997 95.8519 79.295 95.8542C77.4514 97.0466 75.8209 97.6393 74.1577 97.7189C74.0499 97.7236 73.9422 97.7259 73.8367 97.7259C72.2133 97.7259 70.8593 97.1309 70.023 96.0463C69.1984 94.9781 68.9665 93.5397 69.3718 91.9913C69.8965 89.9813 70.6766 88.1307 71.623 86.6361C73.1878 84.1694 75.0057 81.6909 77.0274 79.2687C82.7854 72.3627 89.4361 66.4312 94.5874 62.0342C94.9927 61.6898 95.5362 61.2237 95.6674 61.0175C95.583 60.7926 95.159 60.2445 94.7491 59.715C94.6624 59.6049 94.5781 59.5019 94.4937 59.3988C94.2548 59.1106 93.9924 58.7921 93.7839 58.4172C93.5473 57.9885 93.3646 57.3186 93.5614 56.7212C93.8355 55.8943 94.9482 55.8708 95.0723 55.8708C95.2785 55.8708 95.4659 55.9036 95.6299 55.9692L95.8876 56.0723C97.1315 56.5689 98.4176 57.0843 99.624 57.7566C99.7528 57.8292 99.8957 57.9089 99.966 57.9347C99.9824 57.9276 100.018 57.9136 100.071 57.8831C107.172 54.0108 114.031 51.9938 121.038 51.7151C125.849 51.5253 130.535 50.6797 134.079 49.9675C134.882 49.8059 135.721 49.7239 136.578 49.7239C138.249 49.7239 140.055 50.0331 142.107 50.6679C145.925 51.851 148.631 57.0656 147.467 61.0011C147.047 62.4184 146.148 63.5428 144.789 64.3417C143.876 64.8781 143.395 65.6254 143.126 66.9255C142.887 68.0781 142.39 69.1393 141.91 70.1653L141.802 70.3949C141.674 70.6713 141.788 71.3015 142.212 71.6037C145.825 74.1829 148.905 77.3922 151.625 81.4145C153.719 84.5114 155.064 88.1963 155.856 93.0173C156.79 98.7192 156.287 104.22 155.586 110.303C154.649 118.43 151.864 126.097 149.167 133.514L149.142 133.586C148.699 134.807 148.458 135.788 148.383 136.674C148.369 136.854 148.373 136.962 148.383 137.025C148.427 137.032 148.495 137.039 148.594 137.039C148.687 137.039 148.79 137.035 148.912 137.023C150.66 136.859 152.07 135.854 153.365 134.84C155.411 133.237 157.409 131.661 159.372 130C161.555 128.149 164.123 127.13 166.348 126.378C168.445 125.668 169.698 124.713 170.415 123.281C170.609 122.892 170.813 122.438 170.851 122.035C170.947 121.03 171.015 120.011 171.08 119.025C171.162 117.807 171.246 116.567 171.378 115.347C171.586 113.391 171.841 111.414 172.09 109.5L172.097 109.437C172.233 108.387 172.369 107.338 172.497 106.288C172.589 105.536 172.643 104.883 172.659 104.292C172.722 102.078 174.219 100.56 176.381 100.514C176.459 100.511 176.538 100.511 176.616 100.511C177.56 100.511 178.565 100.638 179.527 100.879C180.706 101.174 181.886 101.509 183.027 101.833C184.168 102.156 185.349 102.491 186.511 102.781C189.488 103.522 192.688 103.866 196.586 103.866L197.048 103.864C197.39 103.864 197.72 103.885 198.041 103.906L199.685 103.456L199.936 104.351C199.964 104.452 200.002 104.55 200.037 104.651C200.154 104.972 200.295 105.36 200.281 105.803C200.187 109.139 200.065 112.674 199.901 116.607C199.885 117.02 199.742 117.371 199.636 117.629C199.606 117.701 199.582 117.757 199.566 117.809L199.369 118.425L198.723 118.458C198.594 118.465 198.472 118.467 198.355 118.467L198.076 118.465C197.919 118.465 197.818 118.472 197.779 118.486C195.108 119.374 192.426 119.824 189.804 119.826C187.27 119.826 184.723 119.404 182.238 118.575C181.479 118.322 180.722 118.062 179.966 117.8C179.134 117.514 178.305 117.228 177.471 116.952L177.194 116.858C176.705 116.692 176.199 116.521 175.744 116.471C175.554 116.45 175.346 116.441 175.105 116.441C174.891 116.441 174.671 116.448 174.453 116.457C174.456 117.048 174.46 117.657 174.521 118.228C174.62 119.135 174.746 120.063 174.87 120.96C175.112 122.7 175.358 124.492 175.409 126.289C175.475 128.576 174.172 130.499 173.029 131.918C172.828 132.169 172.65 132.488 172.493 132.766C172.413 132.907 172.338 133.041 172.268 133.16L172.069 133.488L171.696 133.582C171.581 133.61 171.467 133.631 171.354 133.652C171.265 133.668 171.148 133.689 171.111 133.703C169.944 134.366 168.576 135.149 167.271 135.957C166.875 136.203 166.507 136.512 166.205 136.85C164.385 138.89 163.075 140.998 162.202 143.296C161.663 144.714 160.925 146.016 160.089 147.45C158.468 150.226 157.416 151.264 153.951 153.306C153.963 153.323 153.974 153.341 153.986 153.358C154.415 153.99 154.858 154.642 155.314 155.253C156.594 156.956 157.299 159.001 157.411 161.332C157.535 163.904 157.582 166.516 157.631 169.044L156.929 169.081L157.631 169.067C157.676 171.45 157.723 173.916 157.83 176.329C157.889 177.62 158.172 178.962 158.444 180.26C158.55 180.757 158.655 181.256 158.746 181.752C158.781 181.933 158.929 182.183 159.072 182.425L159.112 182.493C159.676 183.455 160.466 184.006 161.279 184.006C162.087 184.006 162.853 183.453 163.378 182.488C163.738 181.825 163.898 180.944 164.029 180.099C164.085 179.747 164.069 179.365 164.05 178.925C164.036 178.59 164.022 178.246 164.041 177.887C164.062 177.487 164.24 177.17 164.369 176.941C164.404 176.877 164.434 176.824 164.46 176.77L164.95 175.694L165.884 176.418C165.933 176.458 165.997 176.493 166.062 176.533C166.336 176.702 166.711 176.934 166.901 177.381C167.217 178.126 167.449 178.876 167.704 179.775C169.571 186.388 165.908 193.142 159.367 195.154C158.589 195.393 157.673 195.637 156.769 195.637C156.619 195.637 156.472 195.63 156.329 195.618C155.924 195.581 155.518 195.546 155.113 195.508C152.738 195.297 150.28 195.079 147.912 194.517C143.365 193.435 140.35 190.284 138.696 184.887C138.035 182.734 137.436 180.546 136.855 178.431C136.391 176.739 135.911 174.992 135.407 173.286C133.943 168.325 131.94 164.747 129.101 162.028C129.091 162.018 129.084 162.011 129.075 162.002C129.049 162.037 128.981 162.128 128.981 162.128C128.482 162.805 128.009 163.447 127.454 164.056C126.189 165.441 124.901 166.816 123.654 168.149C122.111 169.796 120.515 171.501 118.964 173.221C115.345 177.229 112.199 180.923 110.36 185.51C109.632 187.325 108.805 189.745 108.887 192.353C108.964 194.794 110.409 196.37 112.569 196.37C113.094 196.37 113.647 196.274 114.207 196.082C114.619 195.941 115.017 195.838 115.437 195.728C115.622 195.679 115.809 195.632 115.999 195.578L116.856 195.342L117.137 196.185C117.737 197.991 116.931 199.359 116.275 200.228C115.017 201.894 113.185 202.913 110.983 203.168C110.393 203.239 109.807 203.274 109.231 203.274ZM140.305 74.0095C140.275 74.0095 140.259 74.0119 140.259 74.0119C139.085 74.3141 137.904 74.6092 136.726 74.9044L136.696 74.9114C133.306 75.7594 129.799 76.6379 126.407 77.6569C111.321 82.1946 97.0144 89.4191 84.3925 95.791C84.1348 95.9221 83.7881 96.393 83.7529 96.6624C83.001 102.409 83.3828 108.052 84.8844 113.433C86.29 118.463 88.6536 123.455 92.3245 129.142C94.2524 132.132 96.3865 135.734 97.5836 139.797C99.3007 145.623 100.755 150.931 102.032 156.028C102.625 158.397 103.297 161.079 103.079 163.649C102.794 167.008 101.753 170.255 100.882 172.71C100.781 172.993 100.524 173.71 100.524 173.71C99.4296 176.76 98.3004 179.913 97.9608 183.163C97.6445 186.208 97.429 189.171 98.277 191.964C99.6427 196.464 102.779 199.259 107.598 200.275C108.221 200.406 108.784 200.477 109.313 200.486C107.158 199.036 105.719 196.883 105.762 194.936L105.815 192.32L106.155 192.751C106.033 191.207 106.265 189.741 106.535 188.45C106.624 188.019 106.743 187.609 106.86 187.211C107.16 186.187 107.418 185.301 107.12 184.348C106.849 183.477 107.024 182.5 107.254 181.574C108.088 178.215 110.205 175.762 113.551 174.284C115.935 173.23 117.486 171.145 118.868 169.098C119.7 167.868 120.225 166.322 120.733 164.827C120.958 164.167 121.188 163.492 121.443 162.836C121.602 162.431 121.736 161.99 121.867 161.564C121.935 161.346 121.998 161.138 122.064 160.931L122.352 160.044L124.106 160.61L124.184 161.196C124.313 162.175 124.205 163.087 123.996 163.96C125.09 162.77 126.182 161.536 127.295 160.229C127.276 160.119 127.236 159.978 127.192 159.908C126.922 159.488 126.578 159.071 126.245 158.668C125.995 158.364 125.735 158.05 125.491 157.717C125.231 157.364 125.029 156.998 124.835 156.642C124.753 156.495 124.676 156.349 124.594 156.209L123.884 154.993L125.28 154.81C125.395 154.796 125.505 154.787 125.606 154.787C126.245 154.787 126.599 155.084 126.782 155.335C128.429 157.577 130.453 159.446 132.219 160.981C132.355 161.098 132.448 161.22 132.526 161.316C132.549 161.346 132.568 161.369 132.587 161.393C134.899 164.07 136.616 167.317 137.836 171.318C138.476 173.413 139.071 175.554 139.647 177.622C140.223 179.686 140.816 181.82 141.453 183.908C142.737 188.115 144.841 190.532 148.076 191.521C149.798 192.046 151.667 192.317 153.476 192.58C153.787 192.624 154.099 192.671 154.408 192.716C154.883 192.786 155.366 192.823 155.842 192.823C158.878 192.823 161.703 191.359 163.502 188.963C162.757 189.317 161.902 189.556 160.939 189.556C160.417 189.556 159.88 189.485 159.344 189.345C156.994 188.731 153.855 186.576 153.333 184.716L152.674 182.371L154.733 183.673C155.16 183.943 155.577 184.217 155.994 184.489C156.715 184.962 157.399 185.409 158.1 185.819C157.067 184.995 156.294 183.725 155.907 182.125C155.532 180.569 155.375 178.969 155.223 177.423C155.139 176.557 155.05 175.662 154.926 174.8C154.872 174.427 154.67 173.977 154.401 173.628C154.12 173.265 153.778 172.907 153.445 172.56C153.035 172.131 152.609 171.689 152.239 171.18C151.081 169.594 150.681 167.584 151.11 165.523C151.501 163.639 152.538 161.936 153.953 160.847C154.516 160.416 154.492 160.341 154.326 159.762C153.7 157.614 152.538 155.689 150.871 154.04C150.238 153.416 149.554 152.81 148.891 152.222C148.57 151.936 148.266 151.666 147.963 151.392L147.368 150.854L148.479 149.179L149.245 149.638C149.456 149.764 149.673 149.884 149.889 150.003C150.435 150.303 150.997 150.615 151.51 151.043C151.761 151.254 151.904 151.28 152 151.28C152.14 151.28 152.328 151.221 152.578 151.1C154.797 150.013 156.565 148.181 157.983 145.498C158.54 144.442 159.079 143.346 159.601 142.287C160.435 140.591 161.297 138.838 162.277 137.166C164.16 133.954 166.449 132.214 169.478 131.682C169.696 131.614 170.211 131.014 170.265 130.703C170.448 129.604 170.49 128.451 170.52 127.325C169.787 127.784 169.075 128.215 168.295 128.583C167.573 128.925 166.824 129.182 166.102 129.431C165.453 129.655 164.786 129.885 164.176 130.166C163.275 130.581 162.41 131.129 161.675 131.754C161.054 132.282 160.447 132.874 159.864 133.446C159.116 134.177 158.346 134.929 157.502 135.599C155.036 137.55 152.761 139.232 149.873 140.026C149.399 140.157 148.978 140.221 148.584 140.221C147.167 140.221 146.178 139.384 145.644 137.733C145.469 137.187 145.422 136.725 145.508 136.325L145.618 135.802C145.839 134.744 146.066 133.65 146.415 132.586C146.961 130.923 147.544 129.246 148.106 127.622C149.121 124.701 150.165 121.693 151.018 118.697C152.438 113.705 153.213 108.275 153.532 101.092C153.738 96.4492 153.171 92.181 151.852 88.4071C149.941 82.9465 146.244 78.252 140.554 74.0564C140.516 74.0447 140.413 74.0095 140.305 74.0095ZM154.794 163.752C153.974 164.895 153.621 166.13 153.714 167.491C153.794 168.622 154.314 169.524 154.975 170.276C155.008 167.922 154.989 165.811 154.794 163.752ZM68.43 148.384C67.3618 148.384 66.2912 148.415 65.2488 148.476C63.3372 148.586 61.6904 148.799 60.2169 149.127C55.5013 150.177 51.9616 154.349 51.8 159.046C51.711 161.63 52.3903 163.803 53.8216 165.544C52.7768 163.087 53.1071 161.009 54.747 158.762C56.3774 156.527 59.5141 154.777 61.8895 154.777C62.4494 154.777 62.9601 154.873 63.4028 155.061L65.5838 155.989L64.4172 156.413C65.4362 156.448 66.4576 156.63 67.4579 156.958C69.5966 157.661 71.5855 158.69 73.7782 159.866C76.4089 161.276 79.5035 162.824 82.933 163.37C84.2402 163.579 85.5638 163.682 86.8662 163.682C90.9447 163.682 94.9622 162.688 99.1485 160.648C99.4881 160.482 99.5022 160.423 99.4296 160.093C99.2351 159.193 99.0618 158.28 98.8955 157.396C98.6659 156.185 98.4316 154.941 98.1411 153.737C97.6445 151.678 97.0823 149.607 96.5365 147.604C96.4029 147.112 96.2694 146.625 96.1382 146.14C95.904 146.262 95.6697 146.382 95.4425 146.499C94.2056 147.138 93.039 147.743 91.7951 148.251C89.1245 149.343 86.5008 149.898 83.9966 149.898C82.9775 149.898 81.9655 149.806 80.984 149.624C76.4862 148.79 72.3796 148.384 68.43 148.384ZM182.313 115.553C184.351 116.211 186.932 116.891 189.669 116.891C189.711 116.891 189.751 116.891 189.793 116.891L191.376 106.365L183.939 104.993L182.313 115.553ZM192.782 116.75L197.127 116.118L197.755 106.19L193.897 106.375L192.782 116.75ZM179.619 114.644L181.575 104.224C181.083 104.077 180.605 103.91 180.137 103.749C178.923 103.327 177.778 102.931 176.648 102.931C176.227 102.931 175.829 102.987 175.44 103.1L174.608 113.684L179.619 114.644ZM136.836 52.5748C136.323 52.5748 135.805 52.61 135.297 52.6826C133.814 52.8887 132.313 53.1394 130.86 53.383C129.155 53.6665 127.4 53.9593 125.655 54.1865C124.273 54.3669 122.87 54.4817 121.513 54.5918C119.92 54.723 118.28 54.8565 116.694 55.0954C108.655 56.3042 102.697 58.7827 97.9444 62.8939C93.3318 66.8834 88.4709 71.3366 82.6543 76.9026C79.1427 80.2619 76.0786 84.071 73.5463 88.2244C72.7427 89.5409 72.2227 90.9676 71.958 92.5839C71.8619 93.1673 71.8479 93.9801 72.3281 94.547C72.7662 95.0648 73.4596 95.1725 73.9656 95.1725C74.1202 95.1725 74.2818 95.1631 74.4505 95.1421C76.2051 94.9312 77.6997 94.0528 79.2833 93.1204C79.2833 93.1204 79.6651 92.8955 79.8221 92.8042C99.1274 81.5691 118.22 73.9908 138.183 69.6359C139.291 69.3946 139.809 68.905 140.16 67.7665C140.184 67.6939 140.207 67.6189 140.23 67.5463C140.305 67.3144 140.371 67.1153 140.383 66.9536C140.558 64.7188 141.603 63.0298 143.571 61.7906C144.496 61.2096 144.862 60.2913 144.834 58.6281C144.653 56.9391 143.951 54.7183 141.645 53.6524C140.109 52.9356 138.49 52.5748 136.836 52.5748Z" fill="#ED685D"/>
<path d="M199.37 104.899C199.327 104.779 199.283 104.662 199.25 104.543L199.189 104.32L198.568 104.489L198.531 105.075C198.477 104.866 198.39 104.634 198.165 104.62L198.098 104.615C197.753 104.592 197.397 104.566 197.043 104.566C197.043 104.566 196.718 104.569 196.577 104.569C192.621 104.569 189.367 104.217 186.333 103.463C185.159 103.17 183.974 102.835 182.826 102.509C181.69 102.186 180.514 101.854 179.347 101.561C178.441 101.334 177.492 101.214 176.607 101.214C176.534 101.214 176.461 101.214 176.389 101.216C174.597 101.256 173.407 102.472 173.353 104.313C173.334 104.927 173.28 105.602 173.186 106.375C173.055 107.443 172.917 108.511 172.779 109.579C172.53 111.491 172.275 113.47 172.069 115.42C171.94 116.635 171.856 117.875 171.774 119.072C171.706 120.065 171.638 121.093 171.542 122.101C171.493 122.621 171.258 123.148 171.034 123.595C170.228 125.207 168.85 126.27 166.564 127.043C164.402 127.774 161.911 128.763 159.817 130.536C157.847 132.207 155.842 133.785 153.792 135.392C152.415 136.472 150.906 137.541 148.971 137.723C148.828 137.737 148.702 137.744 148.587 137.744C148.214 137.744 147.978 137.676 147.842 137.529C147.692 137.367 147.638 137.067 147.676 136.618C147.755 135.667 148.008 134.629 148.474 133.347L148.5 133.275C151.18 125.896 153.954 118.268 154.881 110.224C155.577 104.191 156.076 98.7426 155.155 93.1321C154.382 88.4165 153.073 84.8182 151.037 81.8104C148.364 77.8584 145.342 74.7076 141.798 72.1776C141.088 71.6693 140.891 70.6737 141.161 70.0974L141.269 69.8678C141.732 68.8792 142.21 67.8555 142.433 66.785C142.742 65.2904 143.339 64.3791 144.429 63.7372C145.628 63.0321 146.42 62.0459 146.788 60.8043C147.832 57.267 145.317 52.4014 141.894 51.3402C139.912 50.7265 138.172 50.4266 136.574 50.4266C135.766 50.4266 134.972 50.5039 134.215 50.6562C130.645 51.3754 125.922 52.2257 121.061 52.4178C114.165 52.6919 107.406 54.6808 100.404 58.4992C100.226 58.5976 100.083 58.6421 99.9569 58.6421C99.7648 58.6421 99.5798 58.5367 99.2776 58.3704C98.1086 57.7191 96.8436 57.2131 95.6208 56.7235L95.3631 56.6205C95.2835 56.5877 95.1827 56.5713 95.0679 56.5713C94.8805 56.5713 94.323 56.6392 94.2223 56.9414C94.1051 57.2975 94.2223 57.7683 94.3933 58.0752C94.569 58.3938 94.8009 58.6726 95.0258 58.9443C95.1171 59.0544 95.2085 59.1645 95.2999 59.284C96.0097 60.2023 96.4009 60.7083 96.3751 61.0737C96.3493 61.4345 95.8996 61.8327 95.0398 62.5683C89.9096 66.9466 83.2871 72.8523 77.5641 79.7184C75.5635 82.1172 73.7644 84.5723 72.2136 87.0132C71.3047 88.4469 70.5551 90.2296 70.0491 92.1716C69.7 93.5022 69.8874 94.7274 70.5761 95.6176C71.2766 96.5242 72.4315 97.0232 73.8323 97.0232C73.9261 97.0232 74.0221 97.0208 74.1205 97.0161C75.6525 96.9435 77.1752 96.386 78.9088 95.2639C79.0798 95.1538 79.2484 95.0413 79.4194 94.9289L79.4921 94.8797C79.5928 95.0179 79.6888 95.1608 79.7825 95.3013C80.0988 95.7722 80.3986 96.2173 80.839 96.4961C81.3286 96.8076 81.3989 97.0653 81.3497 97.6322C80.9726 101.929 81.1084 105.782 81.762 109.411C82.9122 115.792 85.2595 121.798 88.7383 127.261C91.8422 132.136 94.5104 136.604 95.7168 141.888C95.9792 143.034 95.7684 143.695 94.993 144.165C93.5195 145.06 92.3599 145.672 91.2331 146.15C88.5907 147.269 86.1192 147.815 83.6759 147.815C82.4507 147.815 81.2162 147.672 80.0074 147.391C77.9178 146.906 75.6783 146.45 73.4435 146.398C72.5955 146.379 71.7193 146.368 70.8432 146.368C68.0321 146.368 65.1062 146.466 61.8945 146.67C59.0155 146.852 56.3824 147.97 54.0679 149.996C51.3341 152.388 49.7364 155.801 49.6849 159.36C49.6357 162.773 50.9663 165.909 53.4307 168.193C54.9183 169.573 56.5956 170.358 58.4157 170.527C58.4439 170.529 58.4743 170.531 58.5048 170.531C58.8187 170.531 59.1209 170.381 59.4137 170.239C59.5496 170.173 59.6761 170.11 59.8002 170.063L60.0228 169.978L59.9338 169.758C59.8846 169.639 59.8424 169.515 59.8002 169.391C59.7018 169.102 59.5988 168.805 59.4278 168.54C59.1607 168.133 58.8655 167.734 58.5821 167.35C58.0948 166.692 57.5912 166.012 57.2374 165.286C56.4855 163.735 56.8603 161.962 58.1909 160.765C59.7745 159.343 61.7258 158.622 63.9911 158.622C64.3566 158.622 64.7384 158.64 65.1226 158.678C67.758 158.933 70.0397 160.268 72.2652 161.571C75.2637 163.326 79.3046 165.399 83.9828 165.858C85.2712 165.984 86.4589 166.045 87.6138 166.045C91.1605 166.045 94.2598 165.45 97.0873 164.227C97.858 163.895 98.6217 163.522 99.4299 163.126C99.725 162.981 100.03 162.834 100.346 162.681C100.355 163.058 100.379 163.429 100.4 163.789C100.458 164.771 100.514 165.699 100.294 166.533C99.7086 168.746 98.9777 170.967 98.2703 173.113C97.9283 174.155 97.5722 175.231 97.2395 176.296C95.7567 181.024 95.2296 185.484 95.6325 189.933C96.2838 197.141 102.136 202.576 109.243 202.576C109.791 202.576 110.349 202.543 110.902 202.48C112.909 202.245 114.575 201.322 115.716 199.814C116.325 199.006 116.962 197.89 116.472 196.415L116.402 196.206L116.189 196.265C115.994 196.319 115.805 196.368 115.617 196.417C115.207 196.525 114.821 196.625 114.437 196.757C113.802 196.972 113.176 197.082 112.572 197.082C110.037 197.082 108.275 195.194 108.189 192.385C108.102 189.649 108.957 187.14 109.711 185.259C111.595 180.565 114.781 176.821 118.447 172.762C119.993 171.049 121.595 169.337 123.146 167.68C124.395 166.347 125.686 164.968 126.941 163.595C127.473 163.014 127.935 162.389 128.422 161.726C128.6 161.484 128.78 161.238 128.968 160.99C129.003 161.02 129.038 161.051 129.073 161.079C129.258 161.234 129.431 161.381 129.591 161.533C132.521 164.34 134.585 168.015 136.084 173.101C136.59 174.814 137.071 176.564 137.537 178.257C138.118 180.373 138.72 182.561 139.373 184.695C140.95 189.834 143.796 192.828 148.081 193.847C150.4 194.4 152.829 194.613 155.181 194.822C155.589 194.857 155.994 194.894 156.402 194.932C156.521 194.944 156.648 194.948 156.777 194.948C157.587 194.948 158.442 194.719 159.168 194.496C165.341 192.599 168.796 186.222 167.035 179.979C166.789 179.105 166.564 178.379 166.262 177.669C166.159 177.428 165.927 177.283 165.702 177.144C165.615 177.091 165.531 177.039 165.463 176.985L165.231 176.805L165.109 177.072C165.074 177.147 165.032 177.222 164.99 177.297C164.88 177.494 164.765 177.697 164.751 177.934C164.734 178.26 164.746 178.588 164.76 178.906C164.779 179.363 164.798 179.796 164.73 180.216C164.587 181.122 164.413 182.069 164.001 182.832C163.35 184.032 162.361 184.718 161.286 184.718C160.218 184.718 159.206 184.041 158.512 182.86L158.473 182.792C158.299 182.497 158.119 182.19 158.06 181.891C157.967 181.396 157.861 180.897 157.76 180.412C157.482 179.087 157.191 177.716 157.133 176.369C157.022 173.94 156.978 171.466 156.933 169.072C156.887 166.549 156.837 163.937 156.716 161.372C156.61 159.184 155.952 157.27 154.76 155.682C154.291 155.059 153.844 154.398 153.41 153.758C153.258 153.534 153.106 153.309 152.951 153.086C156.847 150.84 157.849 149.91 159.487 147.103C160.309 145.695 161.031 144.421 161.551 143.055C162.457 140.675 163.809 138.494 165.688 136.39C166.034 136.002 166.456 135.648 166.908 135.369C168.225 134.554 169.598 133.767 170.783 133.094C170.9 133.029 171.055 133.001 171.235 132.968C171.333 132.949 171.432 132.933 171.535 132.907L171.626 132.884L171.675 132.802C171.743 132.691 171.814 132.565 171.889 132.431C172.06 132.127 172.252 131.783 172.491 131.485C173.559 130.159 174.775 128.372 174.716 126.315C174.665 124.558 174.421 122.785 174.184 121.07C174.06 120.163 173.929 119.229 173.831 118.308C173.765 117.692 173.76 117.05 173.758 116.432C173.758 116.216 173.756 116.003 173.753 115.787C173.913 115.783 174.074 115.776 174.236 115.769C174.524 115.755 174.824 115.743 175.114 115.743C175.381 115.743 175.613 115.755 175.829 115.778C176.361 115.837 176.904 116.019 177.426 116.197L177.701 116.289C178.537 116.565 179.371 116.853 180.205 117.139C180.959 117.399 181.713 117.659 182.47 117.912C184.883 118.718 187.354 119.128 189.814 119.128C192.361 119.128 194.968 118.69 197.568 117.825C197.709 117.779 197.87 117.769 198.09 117.769L198.367 117.771C198.472 117.771 198.582 117.769 198.697 117.764L198.857 117.755L198.906 117.603C198.929 117.533 198.96 117.453 198.995 117.371C199.084 117.151 199.196 116.874 199.208 116.586C199.37 112.651 199.494 109.118 199.585 105.791C199.578 105.475 199.473 105.182 199.37 104.899ZM152.876 151.73C152.525 151.903 152.244 151.983 151.988 151.983C151.672 151.983 151.372 151.856 151.047 151.582C150.587 151.198 150.056 150.903 149.54 150.619C149.315 150.495 149.09 150.373 148.873 150.242L148.683 150.127L148.278 150.739L148.425 150.872C148.73 151.149 149.039 151.423 149.348 151.697C150.018 152.29 150.712 152.906 151.356 153.541C153.11 155.276 154.336 157.303 154.994 159.568C155.237 160.402 155.181 160.786 154.375 161.405C151.829 163.363 150.555 167.69 152.801 170.766C153.146 171.236 153.553 171.663 153.947 172.073C154.291 172.434 154.649 172.804 154.952 173.197C155.296 173.645 155.544 174.205 155.615 174.699C155.741 175.577 155.83 176.482 155.917 177.355C156.067 178.878 156.221 180.455 156.584 181.961C157.212 184.568 158.967 186.187 161.16 186.187C161.197 186.187 161.234 186.187 161.272 186.185C163.429 186.131 165.029 184.641 165.899 181.881C165.915 181.832 165.945 181.778 165.981 181.72C165.978 181.886 165.981 182.05 165.985 182.214C165.995 182.727 166.004 183.212 165.845 183.617C165.083 185.526 163.249 187.454 160.867 187.454C160.021 187.454 159.152 187.213 158.287 186.74C157.376 186.238 156.519 185.676 155.61 185.081C155.198 184.809 154.781 184.538 154.354 184.268L153.844 183.945L154.008 184.528C154.413 185.971 157.194 188.061 159.52 188.668C160 188.794 160.478 188.857 160.937 188.857C162.909 188.857 164.418 187.714 165.55 186.597C165.461 186.852 165.367 187.115 165.257 187.361C163.584 191.109 159.887 193.533 155.839 193.533C155.329 193.533 154.811 193.496 154.3 193.418C153.991 193.372 153.682 193.327 153.37 193.283C151.536 193.016 149.639 192.741 147.865 192.2C144.387 191.139 142.133 188.572 140.777 184.121C140.139 182.031 139.542 179.89 138.966 177.822C138.39 175.755 137.794 173.621 137.16 171.534C135.97 167.627 134.299 164.464 132.053 161.864C132.025 161.831 131.997 161.796 131.971 161.763C131.908 161.681 131.842 161.599 131.755 161.524C129.961 159.964 127.899 158.059 126.213 155.764C126.084 155.588 125.885 155.501 125.604 155.501C125.533 155.501 125.456 155.506 125.369 155.518L125.023 155.562L125.198 155.864C125.283 156.01 125.365 156.16 125.447 156.307C125.632 156.644 125.821 156.991 126.056 157.31C126.288 157.626 126.541 157.933 126.787 158.228C127.133 158.647 127.489 159.078 127.782 159.533C127.986 159.849 128.056 160.418 127.972 160.521C126.098 162.731 124.271 164.75 122.406 166.671C122.507 166.35 122.614 166.034 122.722 165.722C123.2 164.321 123.694 162.873 123.486 161.292L123.467 161.147L122.804 160.934L122.734 161.154C122.668 161.36 122.603 161.569 122.54 161.775C122.406 162.213 122.268 162.667 122.099 163.096C121.848 163.738 121.621 164.408 121.399 165.057C120.876 166.596 120.333 168.186 119.45 169.496C118.011 171.628 116.39 173.802 113.834 174.931C110.698 176.315 108.714 178.611 107.936 181.748C107.732 182.575 107.573 183.437 107.793 184.142C108.154 185.297 107.854 186.323 107.538 187.41C107.425 187.794 107.308 188.192 107.226 188.595C106.875 190.282 106.589 192.28 107.132 194.309C107.784 196.74 109.983 198.439 112.483 198.439C113.385 198.439 114.256 198.223 115.074 197.797C115.193 197.736 115.31 197.673 115.43 197.607C115.441 197.972 115.32 198.35 115.069 198.692C114.629 199.294 113.863 199.701 113.066 199.753C112.975 199.76 112.886 199.762 112.799 199.762C111.686 199.762 110.667 199.298 109.772 198.382C109.269 197.867 108.812 197.277 108.372 196.707C108.179 196.459 107.99 196.213 107.793 195.97C107.608 195.742 107.427 195.51 107.219 195.241L106.483 194.304L106.469 194.953C106.422 197.15 108.692 199.746 111.546 200.87C110.887 201.086 110.199 201.191 109.458 201.191C108.84 201.191 108.184 201.116 107.458 200.964C102.37 199.891 99.055 196.932 97.6097 192.17C96.7242 189.251 96.942 186.21 97.2653 183.092C97.612 179.756 98.7575 176.564 99.8656 173.474C99.985 173.141 100.105 172.808 100.222 172.476C101.081 170.06 102.103 166.868 102.382 163.588C102.59 161.135 101.934 158.512 101.353 156.197C100.079 151.109 98.6263 145.81 96.9139 139.993C95.7426 136.016 93.6413 132.469 91.7391 129.522C88.0285 123.773 85.6367 118.723 84.2147 113.62C82.6873 108.148 82.2985 102.411 83.0645 96.571C83.1301 96.0697 83.615 95.3997 84.0835 95.1631C96.7312 88.7772 111.068 81.5363 126.213 76.9823C129.619 75.9586 133.135 75.0777 136.534 74.2274C137.722 73.9299 138.91 73.6324 140.097 73.3278C140.158 73.3114 140.235 73.3044 140.315 73.3044C140.556 73.3044 140.819 73.377 140.966 73.4871C146.776 77.7694 150.552 82.5717 152.513 88.1705C153.862 92.0287 154.441 96.3836 154.232 101.118C153.912 108.359 153.129 113.838 151.693 118.884C150.836 121.899 149.786 124.916 148.772 127.835C148.207 129.459 147.624 131.138 147.081 132.799C146.743 133.825 146.521 134.901 146.305 135.941L146.195 136.465C146.136 136.744 146.174 137.086 146.312 137.513C146.755 138.878 147.476 139.513 148.584 139.513C148.912 139.513 149.273 139.457 149.685 139.344C152.445 138.583 154.661 136.946 157.065 135.043C157.882 134.397 158.639 133.657 159.372 132.94C159.967 132.359 160.581 131.757 161.22 131.216C162.005 130.55 162.926 129.965 163.884 129.524C164.523 129.229 165.208 128.993 165.87 128.765C166.576 128.522 167.306 128.269 167.995 127.945C168.864 127.535 169.665 127.032 170.511 126.5C170.759 126.345 171.008 126.188 171.261 126.031C171.249 126.376 171.24 126.725 171.23 127.065C171.198 128.301 171.165 129.58 170.959 130.817C170.858 131.412 170.096 132.286 169.6 132.373C166.789 132.865 164.655 134.5 162.884 137.52C161.919 139.166 161.061 140.909 160.232 142.596C159.707 143.662 159.166 144.763 158.604 145.826C157.102 148.642 155.233 150.575 152.876 151.73ZM155.31 162.105C155.76 165.286 155.718 168.505 155.652 171.892C154.321 170.77 153.145 169.447 153.014 167.54C152.871 165.495 153.623 163.714 155.31 162.105ZM112.916 177.07L108.863 183.582C108.779 181.42 110.787 178.196 112.916 177.07ZM55.7991 165.689C55.0986 164.478 54.9675 162.719 55.5836 161.353C56.53 159.261 58.2635 157.844 61.0418 156.897C61.4681 156.752 61.8851 156.598 62.3654 156.42C62.5996 156.333 62.8479 156.242 63.1173 156.143L63.6702 155.942L63.129 155.712C62.773 155.56 62.356 155.485 61.8898 155.485C59.751 155.485 56.8017 157.143 55.3142 159.181C53.1637 162.131 53.4612 164.649 56.5206 168.582C56.3402 168.512 56.1692 168.435 56.0123 168.339C52.6108 166.244 50.9569 163.112 51.0975 159.029C51.2685 154.016 55.0401 149.565 60.0649 148.448C61.5759 148.11 63.2602 147.893 65.2093 147.78C66.2658 147.719 67.3504 147.689 68.4327 147.689C72.4245 147.689 76.5732 148.099 81.1178 148.94C82.0572 149.113 83.027 149.202 84.0015 149.202C86.4144 149.202 88.9491 148.666 91.5353 147.607C92.7464 147.11 93.9037 146.513 95.1265 145.88C95.6044 145.634 96.0963 145.379 96.6 145.126C96.8038 145.887 97.0123 146.656 97.2208 147.426C97.7666 149.434 98.3288 151.51 98.8302 153.578C99.1253 154.796 99.3619 156.049 99.5915 157.265C99.7578 158.146 99.9312 159.057 100.123 159.95C100.266 160.61 100.081 160.985 99.4627 161.285C95.178 163.375 91.0598 164.391 86.8712 164.391C85.5336 164.391 84.1725 164.284 82.8279 164.07C79.2906 163.508 76.1328 161.929 73.4505 160.491C71.2883 159.331 69.3275 158.317 67.2426 157.633C66.1978 157.289 65.1273 157.115 64.0661 157.115C62.1639 157.115 60.2828 157.663 58.4696 158.743C55.8319 160.311 54.8738 162.824 55.7991 165.689ZM140.898 67.7595C140.875 67.8298 140.854 67.9 140.83 67.9703C140.406 69.3454 139.683 70.0248 138.331 70.3199C118.438 74.6608 99.4135 82.2133 80.1714 93.4109C79.991 93.5163 79.813 93.6194 79.635 93.7248C77.9858 94.6946 76.4303 95.6106 74.5281 95.8378C74.3337 95.8612 74.1439 95.8729 73.9612 95.8729C73.0242 95.8729 72.2722 95.5707 71.7873 94.9991C71.2696 94.3901 71.0868 93.5139 71.2602 92.4691C71.5413 90.7614 72.0918 89.2528 72.9422 87.8589C75.505 83.654 78.6066 79.7981 82.1626 76.3943C87.991 70.8189 92.8589 66.3586 97.4808 62.3621C102.339 58.1595 108.409 55.6295 116.587 54.402C118.194 54.1607 119.848 54.0249 121.448 53.8937C122.8 53.7836 124.196 53.6688 125.564 53.4907C127.297 53.2659 129.05 52.973 130.743 52.6896C132.203 52.446 133.711 52.1953 135.199 51.9868C135.74 51.9118 136.288 51.8744 136.834 51.8744C138.591 51.8744 140.308 52.2562 141.939 53.0105C144.558 54.2216 145.34 56.7188 145.534 58.5812C145.572 60.5185 145.096 61.657 143.944 62.3832C142.175 63.496 141.24 65.0093 141.081 67.0075C141.065 67.2511 140.983 67.4971 140.898 67.7595ZM139.683 70.8775C139.865 71.3132 139.91 71.5662 139.835 71.7325C139.694 72.0394 139.02 72.2573 137.928 72.5782C136.546 72.9858 135.101 73.2833 133.702 73.5715C132.472 73.8245 131.2 74.0892 129.966 74.4242C119.813 77.1978 109.341 81.2692 97.01 87.2405C94.1005 88.6484 91.1956 90.1851 88.3845 91.6703C86.904 92.4528 85.3743 93.2609 83.8633 94.041C83.3105 94.3268 82.7295 94.5798 82.1134 94.8469C81.8557 94.9593 81.5887 95.0741 81.3146 95.1983L80.408 94.3362C102.072 82.7989 120.918 75.3401 139.683 70.8775ZM97.4129 60.5537L95.6513 57.8948L98.9215 59.4292L97.4129 60.5537ZM172.231 129.243L172.275 128.882L173.032 122.6C173.624 125.361 173.376 127.456 172.231 129.243ZM192.173 105.799L190.402 117.579C190.161 117.589 189.915 117.596 189.671 117.596C186.616 117.596 183.735 116.776 181.531 116.036L183.358 104.173L192.173 105.799ZM182.386 103.718L180.179 115.469L173.859 114.255L174.775 102.587C175.374 102.346 175.988 102.226 176.646 102.226C177.895 102.226 179.094 102.643 180.364 103.083C181.025 103.311 181.702 103.545 182.386 103.718ZM198.505 105.449L197.793 116.729L191.986 117.575L193.26 105.7L198.505 105.449Z" fill="#ED685D"/>
<path d="M107.002 122.564C106.643 122.564 106.287 122.522 105.943 122.438C103.987 121.96 102.769 120.388 102.762 118.336C102.757 116.94 103.324 115.6 104.362 114.56C105.4 113.52 106.786 112.922 108.166 112.922C108.665 112.922 109.159 113 109.633 113.152C110.595 113.463 111.83 114.274 112.245 116.366C112.523 117.779 112.106 119.29 111.099 120.517C110.045 121.801 108.513 122.564 107.002 122.564ZM106.114 116.954C105.409 117.912 105.561 118.495 105.774 118.898C105.887 119.111 106.088 119.334 106.301 119.479C106.498 119.615 106.756 119.685 107.044 119.685C107.461 119.685 107.892 119.533 108.225 119.268C108.431 119.104 108.602 118.948 108.74 118.8C108.564 118.837 108.393 118.856 108.225 118.856C107.653 118.856 107.138 118.627 106.777 118.207C106.381 117.75 106.194 117.319 106.142 116.921C106.133 116.931 106.123 116.942 106.114 116.954Z" fill="#ED685D"/>
<path d="M109.415 113.822C109.012 113.691 108.593 113.625 108.166 113.625C106.972 113.625 105.765 114.148 104.859 115.056C103.954 115.963 103.46 117.127 103.465 118.334C103.472 120.072 104.46 121.351 106.112 121.754C106.402 121.824 106.702 121.862 107.005 121.862C108.307 121.862 109.635 121.192 110.556 120.072C111.43 119.008 111.793 117.708 111.554 116.504C111.273 115.092 110.554 114.19 109.415 113.822ZM108.663 119.817C108.206 120.18 107.618 120.388 107.044 120.388C106.613 120.388 106.217 120.273 105.904 120.058C105.599 119.849 105.318 119.538 105.154 119.226C104.709 118.385 104.838 117.504 105.55 116.537C106.182 115.675 106.92 115.164 107.888 114.932C107.841 114.984 107.794 115.033 107.747 115.082C107.077 115.792 106.318 116.598 107.309 117.746C107.539 118.01 107.855 118.151 108.225 118.151C108.736 118.151 109.347 117.893 110.043 117.387C110.059 118.301 109.631 119.048 108.663 119.817ZM109.717 115.935L108.494 116.478C108.494 116.476 108.494 116.476 108.494 116.474C108.567 116.143 108.635 115.832 108.797 115.607C108.9 115.462 108.993 115.382 109.059 115.382C109.183 115.382 109.401 115.609 109.614 115.827C109.647 115.862 109.682 115.9 109.717 115.935Z" fill="#ED685D"/>
<path d="M135.22 119.168C133.901 119.158 132.636 118.631 131.751 117.718C130.935 116.877 130.504 115.79 130.533 114.658C130.596 112.112 132.861 110.261 136.04 110.153H136.106C137.937 110.153 139.8 112.358 139.809 114.52C139.814 115.839 139.352 117.034 138.509 117.882C137.682 118.713 136.525 119.17 135.255 119.17L135.22 119.168ZM134.388 116.237C134.618 116.345 134.89 116.399 135.173 116.399C135.679 116.399 136.159 116.221 136.431 115.935C136.954 115.382 137.094 114.59 136.799 113.946C136.722 114.581 136.377 115.155 135.768 115.626C135.304 115.984 134.812 116.176 134.306 116.197C134.332 116.211 134.36 116.225 134.388 116.237Z" fill="#ED685D"/>
<path d="M136.117 110.854H136.064C133.274 110.948 131.289 112.517 131.235 114.672C131.212 115.616 131.575 116.523 132.257 117.226C133.011 118.003 134.093 118.456 135.225 118.463H135.255C136.338 118.463 137.317 118.078 138.013 117.38C138.725 116.666 139.114 115.649 139.109 114.518C139.1 112.74 137.563 110.854 136.117 110.854ZM133.311 113.473C133.353 113.372 133.545 113.15 133.669 113.037C133.951 113.211 134.213 113.421 134.487 113.644C134.517 113.667 134.548 113.693 134.576 113.717L133.981 114.365C133.908 114.279 133.836 114.197 133.77 114.122C133.555 113.871 133.379 113.672 133.311 113.473ZM134.211 115.497C134.592 115.497 134.97 115.354 135.337 115.071C136.258 114.358 136.363 113.438 135.651 112.33C135.698 112.327 135.743 112.325 135.785 112.325C136.497 112.325 136.907 112.756 137.303 113.405C137.879 114.344 137.729 115.586 136.94 116.42C136.534 116.849 135.874 117.104 135.171 117.104C134.787 117.104 134.412 117.024 134.091 116.877C133.213 116.471 132.756 115.785 132.725 114.836C133.147 115.188 133.651 115.497 134.211 115.497Z" fill="#ED685D"/>
<path d="M108.819 94.4323C108.031 94.4323 107.308 94.3362 106.666 94.1441C105.096 93.6779 103.229 92.3075 103.25 88.4141L103.253 88.1471L103.395 87.9222C103.456 87.8261 103.524 87.6996 103.602 87.5567C103.89 87.0297 104.274 86.3222 104.843 85.7178C105.717 84.7901 107.675 84.1155 109.5 84.1155C110.529 84.1155 111.426 84.3333 112.1 84.7456C113.916 85.856 114.963 87.8402 114.708 89.6815C114.389 91.9725 112.478 94.0082 110.355 94.3198C109.831 94.3948 109.315 94.4323 108.819 94.4323ZM109.156 86.9032C108.32 86.9032 107.509 87.2803 106.677 88.0557C106.153 88.5477 105.895 89.1497 105.954 89.7518C106.012 90.3608 106.385 90.909 107.005 91.2979C107.352 91.5157 107.816 91.668 108.305 91.8273C108.469 91.8812 108.636 91.935 108.807 91.996C108.968 91.9327 109.13 91.8741 109.289 91.8132C109.849 91.6047 110.369 91.4127 110.793 91.1409C111.662 90.5857 112.044 89.7963 111.892 88.8592C111.747 87.962 111.213 87.4092 110.163 87.0695C109.816 86.9594 109.477 86.9032 109.156 86.9032Z" fill="#ED685D"/>
<path d="M111.732 85.3453C111.17 85.001 110.397 84.8182 109.5 84.8182C107.879 84.8182 106.096 85.4109 105.356 86.198C104.847 86.7368 104.489 87.3974 104.227 87.88C104.138 88.044 104.06 88.1869 103.992 88.2946L103.957 88.3509V88.4165C103.943 91.1924 104.922 92.8908 106.871 93.4694C107.45 93.6404 108.108 93.7271 108.825 93.7271C109.287 93.7271 109.767 93.692 110.254 93.6194C112.053 93.357 113.74 91.5438 114.012 89.5807C114.227 88.0159 113.311 86.3105 111.732 85.3453ZM109.158 86.2004C109.554 86.2004 109.964 86.2683 110.378 86.4018C111.676 86.8211 112.398 87.5895 112.585 88.7491C112.782 89.9673 112.28 91.0261 111.17 91.7336C110.683 92.0451 110.128 92.2513 109.54 92.4691C109.303 92.5558 109.059 92.6472 108.82 92.7456C108.57 92.6519 108.324 92.5722 108.087 92.4949C107.555 92.3192 107.054 92.1552 106.635 91.8929C105.827 91.3869 105.337 90.6513 105.257 89.8197C105.178 88.9951 105.513 88.1869 106.201 87.5427C107.167 86.6408 108.134 86.2004 109.158 86.2004Z" fill="#ED685D"/>
<path d="M121.41 129.011C118.58 129.011 116.378 127.641 114.869 124.938C114.708 124.647 114.607 124.352 114.52 124.089C114.485 123.986 114.452 123.89 114.417 123.797L114.141 123.075L115.785 122.056L116.305 122.679C116.448 122.85 116.591 123.019 116.734 123.185C117.057 123.567 117.385 123.951 117.697 124.35C118.596 125.502 119.981 126.137 121.595 126.137C122.494 126.137 123.406 125.928 124.162 125.551C125.453 124.905 126.2 123.832 126.587 122.073C126.681 121.641 126.929 121.332 127.128 121.086C127.187 121.014 127.238 120.95 127.283 120.885L128.255 119.428L128.922 121.049C128.95 121.119 128.997 121.206 129.047 121.299C129.211 121.606 129.412 121.991 129.403 122.471C129.339 125.46 126.835 128.18 123.579 128.796C122.797 128.939 122.087 129.011 121.41 129.011Z" fill="#ED685D"/>
<path d="M128.275 121.314L128.108 120.911L127.867 121.274C127.811 121.36 127.743 121.442 127.675 121.527C127.506 121.738 127.331 121.955 127.272 122.225C126.843 124.186 125.953 125.444 124.475 126.184C123.622 126.61 122.599 126.844 121.594 126.844C119.759 126.844 118.178 126.114 117.143 124.788C116.838 124.399 116.515 124.017 116.201 123.649C116.056 123.478 115.91 123.307 115.765 123.134L115.636 122.979L115.004 123.373L115.072 123.551C115.112 123.656 115.147 123.762 115.184 123.869C115.266 124.113 115.351 124.364 115.482 124.598C116.878 127.097 118.818 128.311 121.409 128.311C122.041 128.311 122.709 128.243 123.451 128.102C126.389 127.547 128.647 125.118 128.703 122.454C128.71 122.159 128.568 121.89 128.429 121.627C128.371 121.517 128.317 121.414 128.275 121.314Z" fill="#ED685D"/>
<path d="M139.676 84.3614C136.98 84.3122 135.262 83.326 134.419 81.3465C134.096 80.5898 134.276 79.7301 134.421 79.0414L134.445 78.9266C134.988 76.3005 137.382 76.3005 138.284 76.3005C138.416 76.3005 138.547 76.3029 138.676 76.3052C141.152 76.3638 142.913 77.2961 143.914 79.0765C144.441 80.0159 144.471 81.1169 143.998 82.0938C143.445 83.2346 142.302 84.0428 140.941 84.2583C140.599 84.3122 140.268 84.3309 140.004 84.345C139.91 84.3497 139.828 84.3544 139.758 84.3591L139.727 84.3614H139.685H139.676ZM138.498 79.1257C138.111 79.1257 137.708 79.1843 137.303 79.2967C136.937 79.3998 136.687 79.5731 136.619 79.7769C136.56 79.9503 136.635 80.1963 136.83 80.454C137.392 81.2036 138.207 81.5901 139.627 81.7752C139.702 81.7564 139.781 81.7377 139.863 81.7166C140.163 81.644 140.503 81.5643 140.791 81.4449C141.227 81.2622 141.526 80.9928 141.55 80.7585C141.576 80.5266 141.36 80.2291 140.976 79.9597C140.182 79.4068 139.348 79.1257 138.498 79.1257Z" fill="#ED685D"/>
<path d="M139.686 83.6587H139.698H139.709C139.787 83.6517 139.876 83.647 139.972 83.6423C140.22 83.6282 140.532 83.6118 140.839 83.565C141.972 83.3846 142.921 82.7217 143.373 81.7893C143.746 81.0209 143.722 80.1589 143.308 79.4233C142.436 77.8725 140.876 77.062 138.665 77.0104C138.541 77.0081 138.416 77.0057 138.29 77.0057C136.943 77.0057 135.514 77.2517 135.137 79.0719L135.113 79.1867C134.982 79.8122 134.835 80.5196 135.069 81.0725C135.8 82.7943 137.268 83.6165 139.686 83.6587ZM142.251 80.8335C142.197 81.3419 141.764 81.801 141.064 82.0938C140.724 82.2344 140.356 82.3234 140.028 82.4007C139.902 82.4312 139.784 82.4593 139.674 82.4874C137.985 82.2859 136.964 81.8034 136.268 80.8734C135.931 80.4212 135.818 79.9504 135.954 79.5475C136.102 79.1164 136.512 78.7861 137.114 78.6174C137.582 78.4863 138.049 78.4207 138.498 78.4207C139.494 78.4207 140.464 78.7439 141.377 79.3835C141.996 79.8145 142.305 80.3299 142.251 80.8335Z" fill="#ED685D"/>
<path d="M97.0327 107.26C96.1496 107.26 95.1095 106.728 94.6667 106.047C94.1303 105.225 94.4488 103.964 94.7745 103.365C95.6553 101.736 97.5364 100.598 99.3472 100.598C99.7314 100.598 100.099 100.652 100.444 100.757C101.02 100.935 101.434 101.326 101.802 101.673C101.936 101.797 102.058 101.914 102.172 102.006L102.737 102.456L102.446 103.116C102.357 103.322 102.285 103.503 102.222 103.664C102.072 104.046 101.947 104.367 101.725 104.676C100.586 106.253 99.0075 107.145 97.1639 107.258C97.1194 107.258 97.0749 107.26 97.0327 107.26ZM99.1575 103.259C98.7522 103.536 98.3586 103.84 97.9815 104.156C98.4828 103.936 98.86 103.646 99.1575 103.259Z" fill="#ED685D"/>
<path d="M101.316 102.184C100.99 101.875 100.653 101.556 100.233 101.427C99.9568 101.343 99.6593 101.298 99.3454 101.298C97.8063 101.298 96.1431 102.308 95.3911 103.697C95.1217 104.194 94.9249 105.154 95.2552 105.663C95.5715 106.148 96.3844 106.555 97.0333 106.555C97.0614 106.555 97.0918 106.555 97.1199 106.553C98.748 106.455 100.142 105.663 101.154 104.262C101.325 104.025 101.428 103.758 101.561 103.419C101.629 103.245 101.704 103.051 101.803 102.831L101.875 102.667L101.735 102.554C101.594 102.446 101.458 102.32 101.316 102.184ZM96.5952 105C96.5179 104.822 96.546 104.489 96.6069 104.426C97.3636 103.744 98.1882 103.037 99.083 102.47C99.083 102.47 99.0901 102.467 99.1088 102.467C99.2939 102.467 99.7038 102.667 99.9381 102.861C99.9873 102.948 99.9662 103.329 99.8701 103.477C99.2751 104.372 98.3873 104.901 96.9958 105.19C96.9653 105.178 96.9302 105.164 96.8927 105.15C96.8107 105.119 96.621 105.049 96.5952 105Z" fill="#ED685D"/>
<path d="M143.23 105.909C143.153 105.909 143.073 105.906 142.993 105.902C141.951 105.831 140.845 105.173 139.96 104.095C139.093 103.041 138.671 101.858 138.8 100.849C138.962 99.5789 139.775 98.7637 141.028 98.6067C141.159 98.5903 141.297 98.5809 141.436 98.5809C143.544 98.5809 145.865 100.539 146.123 102.533C146.243 103.454 145.999 104.311 145.441 104.948C144.898 105.569 144.113 105.909 143.23 105.909ZM141.607 101.235C141.646 101.825 142.689 103.02 143.141 103.102C143.192 103.112 143.23 103.114 143.253 103.114C143.195 102.702 142.267 101.422 141.855 101.205C141.824 101.2 141.794 101.198 141.766 101.198C141.686 101.198 141.63 101.219 141.607 101.235Z" fill="#ED685D"/>
<path d="M141.437 99.2861C141.327 99.2861 141.219 99.2932 141.116 99.3049C140.179 99.422 139.619 99.9866 139.497 100.938C139.394 101.744 139.771 102.758 140.502 103.648C141.254 104.562 142.203 105.143 143.042 105.199C143.105 105.204 143.168 105.206 143.231 105.206C143.908 105.206 144.508 104.951 144.916 104.484C145.34 104.002 145.52 103.341 145.429 102.624C145.213 100.973 143.199 99.2861 141.437 99.2861ZM143.955 103.18C143.885 103.601 143.651 103.817 143.255 103.817C143.18 103.817 143.098 103.81 143.013 103.793C142.198 103.643 140.936 102.121 140.903 101.247C140.896 101.059 140.961 100.888 141.09 100.755C141.249 100.589 141.495 100.495 141.767 100.495C141.856 100.495 141.948 100.504 142.039 100.525C142.596 100.65 144.002 102.481 143.955 103.18Z" fill="#ED685D"/>
<path d="M149.953 149.884L150.41 149.577C152.753 148.005 154.256 145.847 155.849 143.563C156.437 142.72 157.044 141.851 157.7 141.005L159.574 138.588L159.373 141.64C159.164 144.765 153.788 150.982 151.033 151.282L150.485 151.341L149.953 149.884Z" fill="#ED685D"/>
<path d="M158.721 140.837L158.255 141.436C157.611 142.268 157.009 143.13 156.425 143.966C154.793 146.307 153.251 148.516 150.801 150.16L150.955 150.584C153.368 150.322 158.487 144.358 158.67 141.596L158.721 140.837Z" fill="#ED685D"/>
<path d="M148.094 153.737L149.286 152.608L149.759 152.964C151.762 154.466 153.165 156.56 154.044 159.367L154.227 159.948L152.713 160.671L148.094 153.737Z" fill="#ED685D"/>
<path d="M153.374 159.575C152.54 156.916 151.222 154.937 149.34 153.526L149.008 153.84L152.96 159.772L153.374 159.575Z" fill="#ED685D"/>
<path d="M100.023 80.454L100.508 80.1565C110.928 73.7518 122.995 69.486 137.399 67.1153L138.173 66.9888L138.847 68.9144L137.964 69.2236C137.821 69.2728 137.678 69.3267 137.538 69.3806C137.203 69.5071 136.856 69.6359 136.486 69.7343C134.872 70.1677 133.234 70.5683 131.653 70.9571C128.207 71.8028 124.644 72.6789 121.282 73.8713C117.225 75.3097 113.196 77.0689 109.295 78.772L109.258 78.7884C107.478 79.5661 105.634 80.3697 103.809 81.1357C102.893 81.5199 102.012 81.7635 101.12 81.8806L100.555 81.9556L100.023 80.454Z" fill="#ED685D"/>
<path d="M137.513 67.8087C123.2 70.1631 111.215 74.3985 100.875 80.7539L101.027 81.1826C101.859 81.0725 102.681 80.8453 103.539 80.4869C105.37 79.7185 107.223 78.9103 109.016 78.1279C112.928 76.4201 116.971 74.6538 121.049 73.2108C124.446 72.0067 128.026 71.1282 131.488 70.2778C133.072 69.889 134.709 69.486 136.307 69.0574C136.644 68.966 136.974 68.8442 137.293 68.7247C137.441 68.6685 137.586 68.6146 137.733 68.5631L137.951 68.4858L137.703 67.7806L137.513 67.8087Z" fill="#ED685D"/>
</svg>
